<?xml version="1.0" standalone="no"?>
<!DOCTYPE svg PUBLIC "-//W3C//DTD SVG 20010904//EN"
 "http://www.w3.org/TR/2001/REC-SVG-20010904/DTD/svg10.dtd">
<svg version="1.0" xmlns="http://www.w3.org/2000/svg"
 width="549.000000pt" height="187.000000pt" viewBox="0 0 549.000000 187.000000"
 preserveAspectRatio="xMidYMid meet">

<g transform="translate(0.000000,187.000000) scale(0.100000,-0.100000)"
fill="#000000" stroke="none">
<path d="M1318 1776 c-64 -17 -153 -72 -201 -126 -103 -116 -271 -409 -529
-927 -110 -221 -210 -411 -222 -422 -15 -15 -50 -26 -107 -36 -105 -19 -203
-53 -235 -82 -43 -40 -27 -104 31 -129 97 -40 187 5 322 164 l28 33 180 6
c159 5 790 -21 804 -33 3 -2 -7 -17 -21 -32 -88 -96 -109 -192 -42 -192 82 0
222 138 398 392 61 89 75 102 154 151 116 72 383 219 388 214 2 -2 -13 -44
-35 -93 -52 -120 -96 -260 -120 -380 -32 -166 -33 -179 -13 -205 25 -30 44
-17 36 25 -12 66 50 326 122 508 62 156 99 222 156 274 206 190 541 600 564
690 8 30 -11 54 -41 54 -95 0 -399 -364 -564 -676 -55 -104 -105 -145 -313
-261 -104 -58 -192 -103 -195 -100 -3 3 9 40 26 81 35 83 38 117 15 140 -25
25 -50 20 -176 -40 -126 -59 -173 -68 -194 -40 -16 23 2 90 41 147 21 33 23
40 10 45 -54 21 -125 -175 -80 -220 23 -22 78 -30 122 -16 21 7 80 32 132 56
52 24 98 44 102 44 23 0 4 -70 -44 -162 -47 -92 -59 -108 -117 -151 -36 -27
-113 -86 -172 -133 l-108 -85 -157 11 c-312 21 -590 30 -710 24 -105 -6 -123
-4 -123 8 0 8 26 64 59 124 32 60 100 197 151 304 111 232 214 426 323 610
154 260 214 332 320 385 63 31 117 32 168 3 42 -24 56 -20 40 10 -20 38 -103
56 -173 38z m1581 -243 c-86 -143 -379 -506 -431 -534 -66 -36 147 284 291
436 70 74 139 135 152 135 6 0 0 -17 -12 -37z m-1266 -1184 c-77 -131 -273
-331 -293 -299 -5 8 -3 24 6 41 25 49 96 124 125 132 18 5 29 15 31 30 2 14
29 42 73 74 39 29 71 53 73 53 2 0 -5 -14 -15 -31z m-1323 -129 c0 -19 -83
-101 -122 -121 -47 -24 -99 -24 -128 -1 -49 39 6 85 131 111 119 24 119 24
119 11z"/>
<path d="M2776 1039 c-14 -11 -26 -27 -26 -34 0 -26 22 -27 48 -3 15 14 35 28
45 31 10 4 15 11 12 17 -10 17 -51 11 -79 -11z"/>
<path d="M3399 900 c-14 -4 -110 -53 -212 -109 -301 -164 -434 -221 -522 -221
-56 0 -85 14 -85 40 0 40 44 135 82 176 38 41 43 64 13 64 -39 0 -135 -164
-135 -232 0 -128 189 -113 487 41 51 26 93 47 93 46 0 -1 -7 -16 -16 -33 -24
-49 -16 -66 31 -70 34 -2 55 6 132 53 51 30 97 55 103 55 5 0 9 -17 8 -37 -3
-85 38 -120 125 -109 49 7 172 58 279 116 l56 31 -30 -56 c-32 -59 -33 -82 -6
-99 24 -15 64 7 186 103 113 89 174 127 221 141 28 8 31 6 31 -13 0 -12 -7
-47 -15 -77 -29 -107 -13 -150 57 -150 40 0 126 28 178 57 19 11 70 39 112 61
l77 41 -20 -39 c-29 -56 -23 -74 26 -78 34 -2 55 6 132 53 51 30 97 55 103 55
5 0 9 -17 8 -37 -3 -85 38 -120 125 -109 100 14 467 204 467 242 0 23 -25 16
-96 -27 -37 -23 -127 -71 -200 -106 -221 -109 -289 -95 -239 48 17 46 14 69
-7 69 -8 0 -65 -31 -128 -70 -122 -74 -160 -87 -139 -48 40 75 199 186 291
203 31 6 37 4 43 -14 7 -24 30 -28 39 -6 9 23 -4 45 -31 51 -59 15 -114 -6
-369 -141 -140 -75 -273 -143 -296 -151 -48 -16 -94 -18 -103 -4 -4 6 4 53 16
105 26 108 21 125 -40 125 -54 0 -123 -37 -251 -135 -63 -48 -120 -89 -127
-92 -24 -9 -13 18 36 91 49 72 65 86 101 86 21 0 33 43 17 59 -18 18 -31 13
-85 -33 -70 -60 -361 -206 -424 -213 -78 -9 -96 25 -63 118 17 46 14 69 -7 69
-8 0 -65 -31 -128 -70 -122 -74 -160 -87 -139 -48 40 75 199 186 291 203 31 6
37 4 43 -14 8 -25 30 -28 39 -5 8 21 8 20 -10 38 -16 17 -80 20 -125 6z"/>
</g>
</svg>
