<?xml version="1.0" standalone="no"?>
<!DOCTYPE svg PUBLIC "-//W3C//DTD SVG 20010904//EN"
 "http://www.w3.org/TR/2001/REC-SVG-20010904/DTD/svg10.dtd">
<svg version="1.0" xmlns="http://www.w3.org/2000/svg"
 width="661.000000pt" height="208.000000pt" viewBox="0 0 661.000000 208.000000"
 preserveAspectRatio="xMidYMid meet">

<g transform="translate(0.000000,208.000000) scale(0.100000,-0.100000)"
fill="#000000" stroke="none">
<path d="M936 2048 c-23 -36 -132 -287 -201 -463 -169 -429 -224 -652 -253
-1025 -7 -92 -8 -95 -32 -98 -95 -12 -239 -64 -344 -124 -88 -52 -111 -74 -95
-94 16 -20 19 -19 85 32 91 71 233 136 351 159 l31 6 7 -58 c3 -32 7 -64 8
-72 1 -8 8 -16 16 -19 11 -4 13 10 9 73 -4 60 -2 78 9 82 23 9 242 -15 369
-41 176 -36 316 -50 397 -39 37 5 67 9 67 7 0 -1 -26 -21 -57 -44 -128 -95
-176 -160 -176 -238 0 -61 28 -87 91 -86 111 2 201 99 332 358 l65 128 295
153 c162 84 333 175 380 203 46 28 85 50 87 49 1 -2 -4 -39 -12 -82 -49 -272
33 -365 260 -294 131 40 272 123 470 273 92 70 100 75 103 54 11 -83 53 -113
157 -112 91 1 206 32 375 101 74 30 140 57 147 60 9 4 10 -3 3 -28 -23 -78 36
-133 103 -97 12 6 41 27 65 46 23 19 44 33 45 31 2 -2 8 -16 15 -31 45 -105
310 -79 583 58 l47 23 -19 -60 c-21 -68 -24 -105 -9 -114 6 -4 51 32 101 79
85 81 150 126 182 126 8 0 20 -15 27 -32 46 -117 66 -132 180 -130 100 1 283
51 472 127 15 6 16 3 8 -26 -23 -78 36 -133 103 -97 12 6 41 27 65 46 23 19
44 33 45 31 2 -2 8 -16 15 -31 37 -87 226 -87 446 -1 155 61 284 133 236 133
-6 0 -51 -21 -101 -46 -179 -89 -373 -139 -473 -120 -40 8 -76 52 -76 94 0 43
-28 37 -89 -21 -89 -85 -147 -89 -123 -10 32 108 155 192 177 122 8 -25 25
-24 25 2 0 85 -101 88 -185 4 -76 -76 -486 -204 -580 -181 -19 5 -33 21 -52
62 -33 70 -63 94 -118 94 -47 0 -84 -21 -178 -102 -64 -55 -64 -51 -7 62 33
66 32 80 -6 80 -17 0 -28 -8 -36 -26 -24 -53 -312 -170 -447 -181 -99 -8 -138
1 -161 40 -11 18 -20 42 -20 55 0 43 -28 37 -89 -21 -89 -85 -147 -89 -123
-10 32 108 155 192 177 122 8 -25 25 -24 25 2 0 83 -97 88 -180 8 -78 -75
-463 -219 -584 -219 -43 0 -57 5 -76 25 -28 30 -30 91 -6 149 21 51 20 56 -8
56 -18 0 -33 -12 -53 -42 -51 -77 -305 -264 -469 -346 -139 -70 -266 -99 -305
-69 -55 42 -60 180 -13 347 l15 56 77 34 c120 54 247 145 363 260 183 181 280
331 287 446 4 57 2 64 -26 95 -27 31 -34 33 -87 32 -129 -3 -274 -118 -414
-328 -86 -129 -184 -324 -226 -447 l-30 -87 -135 -81 c-111 -67 -617 -330
-634 -330 -3 0 2 19 10 43 29 80 64 242 64 294 0 57 -17 83 -54 83 -15 0 -54
-28 -107 -76 -95 -86 -139 -110 -169 -94 -26 14 -27 77 -3 149 17 55 10 77
-20 65 -21 -8 -49 -92 -51 -155 -1 -42 3 -54 23 -70 31 -25 87 -24 130 2 19
11 70 52 114 91 55 49 82 67 90 59 17 -17 -10 -171 -55 -307 -32 -99 -44 -124
-58 -124 -11 0 -22 -5 -25 -10 -11 -19 -119 -67 -173 -79 -115 -24 -252 -13
-492 38 -52 12 -150 24 -218 28 l-123 6 6 76 c24 306 68 499 189 819 71 189
147 367 235 556 33 71 58 133 55 138 -10 16 -44 8 -58 -14z m2183 -278 c28
-15 44 -64 37 -113 -26 -175 -369 -539 -619 -657 -33 -16 -63 -27 -65 -25 -8
8 39 127 100 252 66 134 167 296 245 389 102 122 235 190 302 154z m-1589
-1336 c0 -3 -25 -54 -55 -112 -64 -125 -142 -232 -193 -267 -64 -44 -132 -27
-132 33 0 77 103 189 267 291 95 59 113 68 113 55z"/>
<path d="M3291 1126 c-7 -8 -11 -30 -9 -48 2 -28 7 -33 28 -33 32 0 60 46 44
72 -14 23 -47 28 -63 9z"/>
</g>
</svg>
